{"glyphs":{"0":{"ha":1389,"x_min":-10,"x_max":1215,"o":"m 174 690 l 174 179 l 1032 179 l 1032 690 l 174 690 m 164 169 l -10 169 l -10 700 l 164 700 l 164 874 l 1042 874 l 1042 700 l 1215 700 l 1215 169 l 1042 169 l 1042 -6 l 164 -6 l 164 169 z "},"1":{"ha":347,"x_min":-10,"x_max":174,"o":"m 174 -6 l -10 -6 l -10 874 l 174 874 l 174 -6 z "},"2":{"ha":1215,"x_min":-10,"x_max":1042,"o":"m -10 -6 l -10 353 l 164 353 l 164 526 l 858 526 l 858 690 l -10 690 l -10 874 l 868 874 l 868 700 l 1042 700 l 1042 517 l 868 517 l 868 343 l 174 343 l 174 179 l 1042 179 l 1042 -6 l -10 -6 z "},"3":{"ha":1215,"x_min":-10,"x_max":1042,"o":"m 868 -6 l -10 -6 l -10 179 l 858 179 l 858 343 l 164 343 l 164 526 l 858 526 l 858 690 l -10 690 l -10 874 l 868 874 l 868 700 l 1042 700 l 1042 517 l 868 517 l 868 353 l 1042 353 l 1042 169 l 868 169 l 868 -6 z "},"4":{"ha":1215,"x_min":-10,"x_max":1042,"o":"m 164 517 l -10 517 l -10 874 l 174 874 l 174 526 l 858 526 l 858 874 l 1042 874 l 1042 -6 l 858 -6 l 858 343 l 164 343 l 164 517 z "},"5":{"ha":1215,"x_min":-10,"x_max":1042,"o":"m 868 -6 l -10 -6 l -10 179 l 858 179 l 858 343 l -10 343 l -10 874 l 1042 874 l 1042 690 l 174 690 l 174 526 l 868 526 l 868 353 l 1042 353 l 1042 169 l 868 169 l 868 -6 z "},"6":{"ha":1389,"x_min":-10,"x_max":1215,"o":"m 174 343 l 174 179 l 1032 179 l 1032 343 l 174 343 m 164 169 l -10 169 l -10 700 l 164 700 l 164 874 l 1042 874 l 1042 690 l 174 690 l 174 526 l 1042 526 l 1042 353 l 1215 353 l 1215 169 l 1042 169 l 1042 -6 l 164 -6 l 164 169 z "},"7":{"ha":1215,"x_min":-10,"x_max":1042,"o":"m 521 -6 l 338 -6 l 338 179 l 511 179 l 511 353 l 685 353 l 685 526 l 858 526 l 858 690 l -10 690 l -10 874 l 1042 874 l 1042 517 l 868 517 l 868 343 l 694 343 l 694 169 l 521 169 l 521 -6 z "},"8":{"ha":1389,"x_min":-10,"x_max":1215,"o":"m 174 690 l 174 526 l 1032 526 l 1032 690 l 174 690 m 174 343 l 174 179 l 1032 179 l 1032 343 l 174 343 m 164 169 l -10 169 l -10 353 l 164 353 l 164 517 l -10 517 l -10 700 l 164 700 l 164 874 l 1042 874 l 1042 700 l 1215 700 l 1215 517 l 1042 517 l 1042 353 l 1215 353 l 1215 169 l 1042 169 l 1042 -6 l 164 -6 l 164 169 z "},"9":{"ha":1389,"x_min":-10,"x_max":1215,"o":"m 174 690 l 174 526 l 1032 526 l 1032 690 l 174 690 m 1042 -6 l 164 -6 l 164 179 l 1032 179 l 1032 343 l 164 343 l 164 517 l -10 517 l -10 700 l 164 700 l 164 874 l 1042 874 l 1042 700 l 1215 700 l 1215 169 l 1042 169 l 1042 -6 z "}," ":{"ha":1042,"x_min":0,"x_max":0,"o":""},"!":{"ha":347,"x_min":-10,"x_max":174,"o":"m 174 343 l -10 343 l -10 874 l 174 874 l 174 343 m 174 -6 l -10 -6 l -10 179 l 174 179 l 174 -6 z "},"\"":{"ha":694,"x_min":-10,"x_max":521,"o":"m 521 517 l 338 517 l 338 874 l 521 874 l 521 517 m 174 517 l -10 517 l -10 874 l 174 874 l 174 517 z "},"#":{"ha":1042,"x_min":-10,"x_max":868,"o":"m 347 353 l 511 353 l 511 517 l 347 517 l 347 353 m 164 169 l -10 169 l -10 353 l 164 353 l 164 517 l -10 517 l -10 700 l 164 700 l 164 874 l 347 874 l 347 700 l 511 700 l 511 874 l 694 874 l 694 700 l 868 700 l 868 517 l 694 517 l 694 353 l 868 353 l 868 169 l 694 169 l 694 -6 l 511 -6 l 511 169 l 347 169 l 347 -6 l 164 -6 l 164 169 z "},"$":{"ha":1215,"x_min":-10,"x_max":1042,"o":"m 694 -179 l 511 -179 l 511 -6 l -10 -6 l -10 179 l 858 179 l 858 343 l 164 343 l 164 517 l -10 517 l -10 700 l 164 700 l 164 874 l 511 874 l 511 1047 l 694 1047 l 694 874 l 1042 874 l 1042 690 l 174 690 l 174 526 l 868 526 l 868 353 l 1042 353 l 1042 169 l 868 169 l 868 -6 l 694 -6 l 694 -179 z "},"%":{"ha":1736,"x_min":-10,"x_max":1563,"o":"m 1215 179 l 1379 179 l 1379 343 l 1215 343 l 1215 179 m 1389 -6 l 1206 -6 l 1206 169 l 1032 169 l 1032 353 l 1206 353 l 1206 526 l 1389 526 l 1389 353 l 1563 353 l 1563 169 l 1389 169 l 1389 -6 m 174 526 l 338 526 l 338 690 l 174 690 l 174 526 m 347 343 l 164 343 l 164 517 l -10 517 l -10 700 l 164 700 l 164 874 l 347 874 l 347 700 l 521 700 l 521 517 l 347 517 l 347 343 m 521 -6 l 338 -6 l 338 179 l 511 179 l 511 353 l 685 353 l 685 526 l 858 526 l 858 700 l 1032 700 l 1032 874 l 1215 874 l 1215 690 l 1042 690 l 1042 517 l 868 517 l 868 343 l 694 343 l 694 169 l 521 169 l 521 -6 z "},"&":{"ha":1563,"x_min":-10,"x_max":1389,"o":"m 521 526 l 858 526 l 858 690 l 521 690 l 521 526 m 174 343 l 174 179 l 1032 179 l 1032 343 l 174 343 m 164 169 l -10 169 l -10 353 l 164 353 l 164 526 l 338 526 l 338 700 l 511 700 l 511 874 l 868 874 l 868 700 l 1042 700 l 1042 353 l 1206 353 l 1206 526 l 1389 526 l 1389 343 l 1215 343 l 1215 179 l 1389 179 l 1389 -6 l 1206 -6 l 1206 169 l 1042 169 l 1042 -6 l 164 -6 l 164 169 z "},"'":{"ha":347,"x_min":-10,"x_max":174,"o":"m 174 517 l -10 517 l -10 874 l 174 874 l 174 517 z "},"(":{"ha":521,"x_min":-10,"x_max":347,"o":"m 347 -179 l 164 -179 l 164 -6 l -10 -6 l -10 874 l 164 874 l 164 1047 l 347 1047 l 347 864 l 174 864 l 174 6 l 347 6 l 347 -179 z "},")":{"ha":521,"x_min":-10,"x_max":347,"o":"m 174 -179 l -10 -179 l -10 6 l 164 6 l 164 864 l -10 864 l -10 1047 l 174 1047 l 174 874 l 347 874 l 347 -6 l 174 -6 l 174 -179 z "},"*":{"ha":1042,"x_min":-10,"x_max":868,"o":"m 347 -6 l 164 -6 l 164 179 l 338 179 l 338 343 l -10 343 l -10 526 l 338 526 l 338 690 l 164 690 l 164 874 l 347 874 l 347 700 l 511 700 l 511 874 l 694 874 l 694 690 l 521 690 l 521 526 l 868 526 l 868 343 l 521 343 l 521 179 l 694 179 l 694 -6 l 511 -6 l 511 169 l 347 169 l 347 -6 z "},"+":{"ha":1389,"x_min":-10,"x_max":1215,"o":"m -10 343 l -10 526 l 511 526 l 511 874 l 694 874 l 694 526 l 1215 526 l 1215 343 l 694 343 l 694 -6 l 511 -6 l 511 343 l -10 343 z "},",":{"ha":347,"x_min":-10,"x_max":174,"o":"m 174 -179 l -10 -179 l -10 179 l 174 179 l 174 -179 z "},"-":{"ha":1042,"x_min":-10,"x_max":868,"o":"m 868 343 l -10 343 l -10 526 l 868 526 l 868 343 z "},"‐":{"ha":1042,"x_min":-10,"x_max":868,"o":"m 868 343 l -10 343 l -10 526 l 868 526 l 868 343 z "},".":{"ha":347,"x_min":-10,"x_max":174,"o":"m 174 -6 l -10 -6 l -10 179 l 174 179 l 174 -6 z "},"/":{"ha":1042,"x_min":-10,"x_max":868,"o":"m 174 -6 l -10 -6 l -10 179 l 164 179 l 164 353 l 338 353 l 338 526 l 511 526 l 511 700 l 685 700 l 685 874 l 868 874 l 868 690 l 694 690 l 694 517 l 521 517 l 521 343 l 347 343 l 347 169 l 174 169 l 174 -6 z "},":":{"ha":347,"x_min":-10,"x_max":174,"o":"m 174 690 l -10 690 l -10 874 l 174 874 l 174 690 m 174 -6 l -10 -6 l -10 179 l 174 179 l 174 -6 z "},";":{"ha":347,"x_min":-10,"x_max":174,"o":"m 174 517 l -10 517 l -10 700 l 174 700 l 174 517 m 174 -179 l -10 -179 l -10 179 l 174 179 l 174 -179 z "},"<":{"ha":1215,"x_min":-10,"x_max":1042,"o":"m 338 343 l -10 343 l -10 526 l 338 526 l 338 700 l 685 700 l 685 874 l 1042 874 l 1042 690 l 694 690 l 694 517 l 347 517 l 347 353 l 694 353 l 694 179 l 1042 179 l 1042 -6 l 685 -6 l 685 169 l 338 169 l 338 343 z "},"=":{"ha":1042,"x_min":-10,"x_max":868,"o":"m 868 517 l -10 517 l -10 700 l 868 700 l 868 517 m 868 169 l -10 169 l -10 353 l 868 353 l 868 169 z "},">":{"ha":1215,"x_min":-10,"x_max":1042,"o":"m 347 -6 l -10 -6 l -10 179 l 338 179 l 338 353 l 685 353 l 685 517 l 338 517 l 338 690 l -10 690 l -10 874 l 347 874 l 347 700 l 694 700 l 694 526 l 1042 526 l 1042 343 l 694 343 l 694 169 l 347 169 l 347 -6 z "},"?":{"ha":1215,"x_min":-10,"x_max":1042,"o":"m 868 343 l 338 343 l 338 526 l 858 526 l 858 690 l -10 690 l -10 874 l 868 874 l 868 700 l 1042 700 l 1042 517 l 868 517 l 868 343 m 694 -6 l 338 -6 l 338 179 l 694 179 l 694 -6 z "},"@":{"ha":1389,"x_min":-10,"x_max":1215,"o":"m 164 169 l -10 169 l -10 700 l 164 700 l 164 874 l 1042 874 l 1042 700 l 1215 700 l 1215 343 l 338 343 l 338 526 l 1032 526 l 1032 690 l 174 690 l 174 179 l 1042 179 l 1042 -6 l 164 -6 l 164 169 z "},"A":{"ha":1389,"x_min":-10,"x_max":1215,"o":"m 174 690 l 174 526 l 1032 526 l 1032 690 l 174 690 m 174 -6 l -10 -6 l -10 700 l 164 700 l 164 874 l 1042 874 l 1042 700 l 1215 700 l 1215 -6 l 1032 -6 l 1032 343 l 174 343 l 174 -6 z "},"B":{"ha":1389,"x_min":-10,"x_max":1215,"o":"m 174 690 l 174 526 l 1032 526 l 1032 690 l 174 690 m 174 343 l 174 179 l 1032 179 l 1032 343 l 174 343 m -10 -6 l -10 874 l 1042 874 l 1042 700 l 1215 700 l 1215 517 l 1042 517 l 1042 353 l 1215 353 l 1215 169 l 1042 169 l 1042 -6 l -10 -6 z "},"C":{"ha":1389,"x_min":-10,"x_max":1215,"o":"m 164 169 l -10 169 l -10 700 l 164 700 l 164 874 l 1215 874 l 1215 690 l 174 690 l 174 179 l 1215 179 l 1215 -6 l 164 -6 l 164 169 z "},"D":{"ha":1389,"x_min":-10,"x_max":1215,"o":"m 174 690 l 174 179 l 1032 179 l 1032 690 l 174 690 m -10 -6 l -10 874 l 1042 874 l 1042 700 l 1215 700 l 1215 169 l 1042 169 l 1042 -6 l -10 -6 z "},"E":{"ha":1389,"x_min":-10,"x_max":1215,"o":"m 164 169 l -10 169 l -10 700 l 164 700 l 164 874 l 1215 874 l 1215 690 l 174 690 l 174 526 l 1042 526 l 1042 343 l 174 343 l 174 179 l 1215 179 l 1215 -6 l 164 -6 l 164 169 z "},"F":{"ha":1389,"x_min":-10,"x_max":1215,"o":"m 174 -6 l -10 -6 l -10 700 l 164 700 l 164 874 l 1215 874 l 1215 690 l 174 690 l 174 526 l 1042 526 l 1042 343 l 174 343 l 174 -6 z "},"G":{"ha":1389,"x_min":-10,"x_max":1215,"o":"m 164 169 l -10 169 l -10 700 l 164 700 l 164 874 l 1215 874 l 1215 690 l 174 690 l 174 179 l 1032 179 l 1032 343 l 511 343 l 511 526 l 1215 526 l 1215 -6 l 164 -6 l 164 169 z "},"H":{"ha":1389,"x_min":-10,"x_max":1215,"o":"m 174 -6 l -10 -6 l -10 874 l 174 874 l 174 526 l 1032 526 l 1032 874 l 1215 874 l 1215 -6 l 1032 -6 l 1032 343 l 174 343 l 174 -6 z "},"I":{"ha":347,"x_min":-10,"x_max":174,"o":"m 174 -6 l -10 -6 l -10 874 l 174 874 l 174 -6 z "},"J":{"ha":1042,"x_min":-10,"x_max":868,"o":"m 694 -6 l -10 -6 l -10 179 l 685 179 l 685 874 l 868 874 l 868 169 l 694 169 l 694 -6 z "},"K":{"ha":1389,"x_min":-10,"x_max":1215,"o":"m 174 -6 l -10 -6 l -10 874 l 174 874 l 174 526 l 858 526 l 858 700 l 1032 700 l 1032 874 l 1215 874 l 1215 690 l 1042 690 l 1042 517 l 868 517 l 868 353 l 1042 353 l 1042 179 l 1215 179 l 1215 -6 l 1032 -6 l 1032 169 l 858 169 l 858 343 l 174 343 l 174 -6 z "},"L":{"ha":1389,"x_min":-10,"x_max":1215,"o":"m 164 169 l -10 169 l -10 874 l 174 874 l 174 179 l 1215 179 l 1215 -6 l 164 -6 l 164 169 z "},"M":{"ha":2083,"x_min":-10,"x_max":1910,"o":"m 174 -6 l -10 -6 l -10 700 l 164 700 l 164 874 l 868 874 l 868 700 l 1032 700 l 1032 874 l 1736 874 l 1736 700 l 1910 700 l 1910 -6 l 1726 -6 l 1726 690 l 1042 690 l 1042 -6 l 858 -6 l 858 690 l 174 690 l 174 -6 z "},"N":{"ha":1389,"x_min":-10,"x_max":1215,"o":"m 174 -6 l -10 -6 l -10 700 l 164 700 l 164 874 l 1042 874 l 1042 700 l 1215 700 l 1215 -6 l 1032 -6 l 1032 690 l 174 690 l 174 -6 z "},"O":{"ha":1389,"x_min":-10,"x_max":1215,"o":"m 174 690 l 174 179 l 1032 179 l 1032 690 l 174 690 m 164 169 l -10 169 l -10 700 l 164 700 l 164 874 l 1042 874 l 1042 700 l 1215 700 l 1215 169 l 1042 169 l 1042 -6 l 164 -6 l 164 169 z "},"P":{"ha":1389,"x_min":-10,"x_max":1215,"o":"m 174 690 l 174 526 l 1032 526 l 1032 690 l 174 690 m 174 -6 l -10 -6 l -10 874 l 1042 874 l 1042 700 l 1215 700 l 1215 517 l 1042 517 l 1042 343 l 174 343 l 174 -6 z "},"Q":{"ha":1389,"x_min":-10,"x_max":1215,"o":"m 174 690 l 174 179 l 1032 179 l 1032 690 l 174 690 m 164 169 l -10 169 l -10 700 l 164 700 l 164 874 l 1042 874 l 1042 700 l 1215 700 l 1215 169 l 1042 169 l 1042 6 l 1215 6 l 1215 -179 l 858 -179 l 858 -6 l 164 -6 l 164 169 z "},"R":{"ha":1389,"x_min":-10,"x_max":1215,"o":"m 174 690 l 174 526 l 1032 526 l 1032 690 l 174 690 m 174 -6 l -10 -6 l -10 874 l 1042 874 l 1042 700 l 1215 700 l 1215 517 l 1042 517 l 1042 179 l 1215 179 l 1215 -6 l 1032 -6 l 1032 169 l 858 169 l 858 343 l 174 343 l 174 -6 z "},"S":{"ha":1389,"x_min":-10,"x_max":1215,"o":"m 1042 -6 l -10 -6 l -10 179 l 1032 179 l 1032 343 l 164 343 l 164 517 l -10 517 l -10 700 l 164 700 l 164 874 l 1215 874 l 1215 690 l 174 690 l 174 526 l 1042 526 l 1042 353 l 1215 353 l 1215 169 l 1042 169 l 1042 -6 z "},"T":{"ha":1389,"x_min":-10,"x_max":1215,"o":"m 694 -6 l 511 -6 l 511 690 l -10 690 l -10 874 l 1215 874 l 1215 690 l 694 690 l 694 -6 z "},"U":{"ha":1389,"x_min":-10,"x_max":1215,"o":"m 164 169 l -10 169 l -10 874 l 174 874 l 174 179 l 1032 179 l 1032 874 l 1215 874 l 1215 169 l 1042 169 l 1042 -6 l 164 -6 l 164 169 z "},"V":{"ha":1389,"x_min":-10,"x_max":1215,"o":"m 338 169 l 164 169 l 164 343 l -10 343 l -10 874 l 174 874 l 174 353 l 347 353 l 347 179 l 858 179 l 858 353 l 1032 353 l 1032 874 l 1215 874 l 1215 343 l 1042 343 l 1042 169 l 868 169 l 868 -6 l 338 -6 l 338 169 z "},"W":{"ha":2083,"x_min":-10,"x_max":1910,"o":"m 868 -6 l 164 -6 l 164 169 l -10 169 l -10 874 l 174 874 l 174 179 l 858 179 l 858 874 l 1042 874 l 1042 179 l 1726 179 l 1726 874 l 1910 874 l 1910 169 l 1736 169 l 1736 -6 l 1032 -6 l 1032 169 l 868 169 l 868 -6 z "},"X":{"ha":1215,"x_min":-10,"x_max":1042,"o":"m 174 -6 l -10 -6 l -10 179 l 164 179 l 164 353 l 338 353 l 338 517 l 164 517 l 164 690 l -10 690 l -10 874 l 174 874 l 174 700 l 347 700 l 347 526 l 685 526 l 685 700 l 858 700 l 858 874 l 1042 874 l 1042 690 l 868 690 l 868 517 l 694 517 l 694 353 l 868 353 l 868 179 l 1042 179 l 1042 -6 l 858 -6 l 858 169 l 685 169 l 685 343 l 347 343 l 347 169 l 174 169 l 174 -6 z "},"Y":{"ha":1389,"x_min":-10,"x_max":1215,"o":"m 694 -6 l 511 -6 l 511 343 l 164 343 l 164 517 l -10 517 l -10 874 l 174 874 l 174 526 l 1032 526 l 1032 874 l 1215 874 l 1215 517 l 1042 517 l 1042 343 l 694 343 l 694 -6 z "},"Z":{"ha":1389,"x_min":-10,"x_max":1215,"o":"m -10 353 l 164 353 l 164 526 l 1032 526 l 1032 690 l -10 690 l -10 874 l 1215 874 l 1215 517 l 1042 517 l 1042 343 l 174 343 l 174 179 l 1215 179 l 1215 -6 l -10 -6 l -10 353 z "},"[":{"ha":694,"x_min":-10,"x_max":521,"o":"m -10 -179 l -10 1047 l 521 1047 l 521 864 l 174 864 l 174 6 l 521 6 l 521 -179 l -10 -179 z "},"\\":{"ha":1042,"x_min":-10,"x_max":868,"o":"m 868 -6 l 685 -6 l 685 169 l 511 169 l 511 343 l 338 343 l 338 517 l 164 517 l 164 690 l -10 690 l -10 874 l 174 874 l 174 700 l 347 700 l 347 526 l 521 526 l 521 353 l 694 353 l 694 179 l 868 179 l 868 -6 z "},"]":{"ha":694,"x_min":-10,"x_max":521,"o":"m 521 -179 l -10 -179 l -10 6 l 338 6 l 338 864 l -10 864 l -10 1047 l 521 1047 l 521 -179 z "},"^":{"ha":1042,"x_min":-10,"x_max":868,"o":"m 174 343 l -10 343 l -10 526 l 164 526 l 164 700 l 338 700 l 338 874 l 521 874 l 521 700 l 694 700 l 694 526 l 868 526 l 868 343 l 685 343 l 685 517 l 511 517 l 511 690 l 347 690 l 347 517 l 174 517 l 174 343 z "},"_":{"ha":1215,"x_min":-10,"x_max":1042,"o":"m 1042 -179 l -10 -179 l -10 6 l 1042 6 l 1042 -179 z "},"`":{"ha":521,"x_min":-10,"x_max":347,"o":"m 347 517 l 164 517 l 164 690 l -10 690 l -10 874 l 174 874 l 174 700 l 347 700 l 347 517 z "},"a":{"ha":1389,"x_min":-10,"x_max":1215,"o":"m 174 690 l 174 526 l 1032 526 l 1032 690 l 174 690 m 174 -6 l -10 -6 l -10 700 l 164 700 l 164 874 l 1042 874 l 1042 700 l 1215 700 l 1215 -6 l 1032 -6 l 1032 343 l 174 343 l 174 -6 z "},"b":{"ha":1389,"x_min":-10,"x_max":1215,"o":"m 174 690 l 174 526 l 1032 526 l 1032 690 l 174 690 m 174 343 l 174 179 l 1032 179 l 1032 343 l 174 343 m -10 -6 l -10 874 l 1042 874 l 1042 700 l 1215 700 l 1215 517 l 1042 517 l 1042 353 l 1215 353 l 1215 169 l 1042 169 l 1042 -6 l -10 -6 z "},"c":{"ha":1389,"x_min":-10,"x_max":1215,"o":"m 164 169 l -10 169 l -10 700 l 164 700 l 164 874 l 1215 874 l 1215 690 l 174 690 l 174 179 l 1215 179 l 1215 -6 l 164 -6 l 164 169 z "},"d":{"ha":1389,"x_min":-10,"x_max":1215,"o":"m 174 690 l 174 179 l 1032 179 l 1032 690 l 174 690 m -10 -6 l -10 874 l 1042 874 l 1042 700 l 1215 700 l 1215 169 l 1042 169 l 1042 -6 l -10 -6 z "},"e":{"ha":1389,"x_min":-10,"x_max":1215,"o":"m 164 169 l -10 169 l -10 700 l 164 700 l 164 874 l 1215 874 l 1215 690 l 174 690 l 174 526 l 1042 526 l 1042 343 l 174 343 l 174 179 l 1215 179 l 1215 -6 l 164 -6 l 164 169 z "},"f":{"ha":1389,"x_min":-10,"x_max":1215,"o":"m 174 -6 l -10 -6 l -10 700 l 164 700 l 164 874 l 1215 874 l 1215 690 l 174 690 l 174 526 l 1042 526 l 1042 343 l 174 343 l 174 -6 z "},"g":{"ha":1389,"x_min":-10,"x_max":1215,"o":"m 164 169 l -10 169 l -10 700 l 164 700 l 164 874 l 1215 874 l 1215 690 l 174 690 l 174 179 l 1032 179 l 1032 343 l 511 343 l 511 526 l 1215 526 l 1215 -6 l 164 -6 l 164 169 z "},"h":{"ha":1389,"x_min":-10,"x_max":1215,"o":"m 174 -6 l -10 -6 l -10 874 l 174 874 l 174 526 l 1032 526 l 1032 874 l 1215 874 l 1215 -6 l 1032 -6 l 1032 343 l 174 343 l 174 -6 z "},"i":{"ha":347,"x_min":-10,"x_max":174,"o":"m 174 -6 l -10 -6 l -10 874 l 174 874 l 174 -6 z "},"j":{"ha":1042,"x_min":-10,"x_max":868,"o":"m 694 -6 l -10 -6 l -10 179 l 685 179 l 685 874 l 868 874 l 868 169 l 694 169 l 694 -6 z "},"k":{"ha":1389,"x_min":-10,"x_max":1215,"o":"m 174 -6 l -10 -6 l -10 874 l 174 874 l 174 526 l 858 526 l 858 700 l 1032 700 l 1032 874 l 1215 874 l 1215 690 l 1042 690 l 1042 517 l 868 517 l 868 353 l 1042 353 l 1042 179 l 1215 179 l 1215 -6 l 1032 -6 l 1032 169 l 858 169 l 858 343 l 174 343 l 174 -6 z "},"l":{"ha":1389,"x_min":-10,"x_max":1215,"o":"m 164 169 l -10 169 l -10 874 l 174 874 l 174 179 l 1215 179 l 1215 -6 l 164 -6 l 164 169 z "},"m":{"ha":2083,"x_min":-10,"x_max":1910,"o":"m 174 -6 l -10 -6 l -10 700 l 164 700 l 164 874 l 868 874 l 868 700 l 1032 700 l 1032 874 l 1736 874 l 1736 700 l 1910 700 l 1910 -6 l 1726 -6 l 1726 690 l 1042 690 l 1042 -6 l 858 -6 l 858 690 l 174 690 l 174 -6 z "},"n":{"ha":1389,"x_min":-10,"x_max":1215,"o":"m 174 -6 l -10 -6 l -10 700 l 164 700 l 164 874 l 1042 874 l 1042 700 l 1215 700 l 1215 -6 l 1032 -6 l 1032 690 l 174 690 l 174 -6 z "},"o":{"ha":1389,"x_min":-10,"x_max":1215,"o":"m 174 690 l 174 179 l 1032 179 l 1032 690 l 174 690 m 164 169 l -10 169 l -10 700 l 164 700 l 164 874 l 1042 874 l 1042 700 l 1215 700 l 1215 169 l 1042 169 l 1042 -6 l 164 -6 l 164 169 z "},"p":{"ha":1389,"x_min":-10,"x_max":1215,"o":"m 174 690 l 174 526 l 1032 526 l 1032 690 l 174 690 m 174 -6 l -10 -6 l -10 874 l 1042 874 l 1042 700 l 1215 700 l 1215 517 l 1042 517 l 1042 343 l 174 343 l 174 -6 z "},"q":{"ha":1389,"x_min":-10,"x_max":1215,"o":"m 174 690 l 174 179 l 1032 179 l 1032 690 l 174 690 m 164 169 l -10 169 l -10 700 l 164 700 l 164 874 l 1042 874 l 1042 700 l 1215 700 l 1215 169 l 1042 169 l 1042 6 l 1215 6 l 1215 -179 l 858 -179 l 858 -6 l 164 -6 l 164 169 z "},"r":{"ha":1389,"x_min":-10,"x_max":1215,"o":"m 174 690 l 174 526 l 1032 526 l 1032 690 l 174 690 m 174 -6 l -10 -6 l -10 874 l 1042 874 l 1042 700 l 1215 700 l 1215 517 l 1042 517 l 1042 179 l 1215 179 l 1215 -6 l 1032 -6 l 1032 169 l 858 169 l 858 343 l 174 343 l 174 -6 z "},"s":{"ha":1389,"x_min":-10,"x_max":1215,"o":"m 1042 -6 l -10 -6 l -10 179 l 1032 179 l 1032 343 l 164 343 l 164 517 l -10 517 l -10 700 l 164 700 l 164 874 l 1215 874 l 1215 690 l 174 690 l 174 526 l 1042 526 l 1042 353 l 1215 353 l 1215 169 l 1042 169 l 1042 -6 z "},"t":{"ha":1389,"x_min":-10,"x_max":1215,"o":"m 694 -6 l 511 -6 l 511 690 l -10 690 l -10 874 l 1215 874 l 1215 690 l 694 690 l 694 -6 z "},"u":{"ha":1389,"x_min":-10,"x_max":1215,"o":"m 164 169 l -10 169 l -10 874 l 174 874 l 174 179 l 1032 179 l 1032 874 l 1215 874 l 1215 169 l 1042 169 l 1042 -6 l 164 -6 l 164 169 z "},"v":{"ha":1389,"x_min":-10,"x_max":1215,"o":"m 338 169 l 164 169 l 164 343 l -10 343 l -10 874 l 174 874 l 174 353 l 347 353 l 347 179 l 858 179 l 858 353 l 1032 353 l 1032 874 l 1215 874 l 1215 343 l 1042 343 l 1042 169 l 868 169 l 868 -6 l 338 -6 l 338 169 z "},"w":{"ha":2083,"x_min":-10,"x_max":1910,"o":"m 868 -6 l 164 -6 l 164 169 l -10 169 l -10 874 l 174 874 l 174 179 l 858 179 l 858 874 l 1042 874 l 1042 179 l 1726 179 l 1726 874 l 1910 874 l 1910 169 l 1736 169 l 1736 -6 l 1032 -6 l 1032 169 l 868 169 l 868 -6 z "},"x":{"ha":1215,"x_min":-10,"x_max":1042,"o":"m 174 -6 l -10 -6 l -10 179 l 164 179 l 164 353 l 338 353 l 338 517 l 164 517 l 164 690 l -10 690 l -10 874 l 174 874 l 174 700 l 347 700 l 347 526 l 685 526 l 685 700 l 858 700 l 858 874 l 1042 874 l 1042 690 l 868 690 l 868 517 l 694 517 l 694 353 l 868 353 l 868 179 l 1042 179 l 1042 -6 l 858 -6 l 858 169 l 685 169 l 685 343 l 347 343 l 347 169 l 174 169 l 174 -6 z "},"y":{"ha":1389,"x_min":-10,"x_max":1215,"o":"m 694 -6 l 511 -6 l 511 343 l 164 343 l 164 517 l -10 517 l -10 874 l 174 874 l 174 526 l 1032 526 l 1032 874 l 1215 874 l 1215 517 l 1042 517 l 1042 343 l 694 343 l 694 -6 z "},"z":{"ha":1389,"x_min":-10,"x_max":1215,"o":"m -10 353 l 164 353 l 164 526 l 1032 526 l 1032 690 l -10 690 l -10 874 l 1215 874 l 1215 517 l 1042 517 l 1042 343 l 174 343 l 174 179 l 1215 179 l 1215 -6 l -10 -6 l -10 353 z "},"{":{"ha":1042,"x_min":-10,"x_max":868,"o":"m 868 -179 l 511 -179 l 511 -6 l 338 -6 l 338 343 l -10 343 l -10 526 l 338 526 l 338 874 l 511 874 l 511 1047 l 868 1047 l 868 864 l 521 864 l 521 517 l 347 517 l 347 353 l 521 353 l 521 6 l 868 6 l 868 -179 z "},"|":{"ha":347,"x_min":-10,"x_max":174,"o":"m 174 -179 l -10 -179 l -10 1047 l 174 1047 l 174 -179 z "},"}":{"ha":1042,"x_min":-10,"x_max":868,"o":"m 347 -179 l -10 -179 l -10 6 l 338 6 l 338 353 l 511 353 l 511 517 l 338 517 l 338 864 l -10 864 l -10 1047 l 347 1047 l 347 874 l 521 874 l 521 526 l 868 526 l 868 343 l 521 343 l 521 -6 l 347 -6 l 347 -179 z "},"~":{"ha":1042,"x_min":-10,"x_max":868,"o":"m 174 343 l -10 343 l -10 526 l 164 526 l 164 700 l 521 700 l 521 526 l 685 526 l 685 700 l 868 700 l 868 517 l 694 517 l 694 343 l 338 343 l 338 517 l 174 517 l 174 343 z "},"€":{"ha":1563,"x_min":-10,"x_max":1389,"o":"m 164 343 l -10 343 l -10 526 l 164 526 l 164 700 l 338 700 l 338 874 l 1389 874 l 1389 690 l 347 690 l 347 526 l 868 526 l 868 343 l 347 343 l 347 179 l 1389 179 l 1389 -6 l 338 -6 l 338 169 l 164 169 l 164 343 z "},"¡":{"ha":347,"x_min":-10,"x_max":174,"o":"m 174 343 l -10 343 l -10 526 l 174 526 l 174 343 m 174 -353 l -10 -353 l -10 179 l 174 179 l 174 -353 z "},"£":{"ha":1389,"x_min":-10,"x_max":1215,"o":"m 164 343 l -10 343 l -10 526 l 164 526 l 164 700 l 338 700 l 338 874 l 1042 874 l 1042 690 l 347 690 l 347 526 l 694 526 l 694 343 l 347 343 l 347 179 l 1215 179 l 1215 -6 l -10 -6 l -10 179 l 164 179 l 164 343 z "},"¥":{"ha":1389,"x_min":-10,"x_max":1215,"o":"m 511 169 l 164 169 l 164 353 l 511 353 l 511 517 l 164 517 l 164 690 l -10 690 l -10 874 l 174 874 l 174 700 l 1032 700 l 1032 874 l 1215 874 l 1215 690 l 1042 690 l 1042 517 l 694 517 l 694 353 l 1042 353 l 1042 169 l 694 169 l 694 -6 l 511 -6 l 511 169 z "},"©":{"ha":1389,"x_min":-10,"x_max":1215,"o":"m 174 6 l 1032 6 l 1032 864 l 174 864 l 174 6 m 1042 -179 l 164 -179 l 164 -6 l -10 -6 l -10 874 l 164 874 l 164 1047 l 1042 1047 l 1042 874 l 1215 874 l 1215 -6 l 1042 -6 l 1042 -179 m 338 169 l 338 700 l 868 700 l 868 517 l 521 517 l 521 353 l 868 353 l 868 169 l 338 169 z "},"®":{"ha":1389,"x_min":-10,"x_max":1215,"o":"m 174 6 l 1032 6 l 1032 864 l 174 864 l 174 6 m 164 -6 l -10 -6 l -10 874 l 164 874 l 164 1047 l 1042 1047 l 1042 874 l 1215 874 l 1215 -6 l 1042 -6 l 1042 -179 l 164 -179 l 164 -6 m 521 169 l 338 169 l 338 700 l 868 700 l 868 517 l 521 517 l 521 169 z "},"º":{"ha":694,"x_min":-10,"x_max":521,"o":"m 174 526 l 338 526 l 338 690 l 174 690 l 174 526 m 347 343 l 164 343 l 164 517 l -10 517 l -10 700 l 164 700 l 164 874 l 347 874 l 347 700 l 521 700 l 521 517 l 347 517 l 347 343 z "},"¿":{"ha":1215,"x_min":-10,"x_max":1042,"o":"m 694 343 l 338 343 l 338 526 l 694 526 l 694 343 m 164 -179 l -10 -179 l -10 6 l 164 6 l 164 179 l 694 179 l 694 -6 l 174 -6 l 174 -169 l 1042 -169 l 1042 -353 l 164 -353 l 164 -179 z "},"À":{"ha":1389,"x_min":-10,"x_max":1215,"o":"m 521 1038 l 338 1038 l 338 1211 l 164 1211 l 164 1394 l 347 1394 l 347 1221 l 521 1221 l 521 1038 m 174 690 l 174 526 l 1032 526 l 1032 690 l 174 690 m 174 -6 l -10 -6 l -10 700 l 164 700 l 164 874 l 1042 874 l 1042 700 l 1215 700 l 1215 -6 l 1032 -6 l 1032 343 l 174 343 l 174 -6 z "},"Á":{"ha":1389,"x_min":-10,"x_max":1215,"o":"m 694 1038 l 511 1038 l 511 1221 l 685 1221 l 685 1394 l 868 1394 l 868 1211 l 694 1211 l 694 1038 m 174 690 l 174 526 l 1032 526 l 1032 690 l 174 690 m 174 -6 l -10 -6 l -10 700 l 164 700 l 164 874 l 1042 874 l 1042 700 l 1215 700 l 1215 -6 l 1032 -6 l 1032 343 l 174 343 l 174 -6 z "},"Â":{"ha":1389,"x_min":-10,"x_max":1215,"o":"m 521 1038 l 338 1038 l 338 1221 l 511 1221 l 511 1394 l 694 1394 l 694 1221 l 868 1221 l 868 1038 l 685 1038 l 685 1211 l 521 1211 l 521 1038 m 174 690 l 174 526 l 1032 526 l 1032 690 l 174 690 m 174 -6 l -10 -6 l -10 700 l 164 700 l 164 874 l 1042 874 l 1042 700 l 1215 700 l 1215 -6 l 1032 -6 l 1032 343 l 174 343 l 174 -6 z "},"Ã":{"ha":1389,"x_min":-10,"x_max":1215,"o":"m 347 1038 l 164 1038 l 164 1221 l 338 1221 l 338 1394 l 694 1394 l 694 1221 l 858 1221 l 858 1394 l 1042 1394 l 1042 1211 l 868 1211 l 868 1038 l 511 1038 l 511 1211 l 347 1211 l 347 1038 m 174 690 l 174 526 l 1032 526 l 1032 690 l 174 690 m 174 -6 l -10 -6 l -10 700 l 164 700 l 164 874 l 1042 874 l 1042 700 l 1215 700 l 1215 -6 l 1032 -6 l 1032 343 l 174 343 l 174 -6 z "},"Ä":{"ha":1389,"x_min":-10,"x_max":1215,"o":"m 1042 1038 l 858 1038 l 858 1221 l 1042 1221 l 1042 1038 m 347 1038 l 164 1038 l 164 1221 l 347 1221 l 347 1038 m 174 690 l 174 526 l 1032 526 l 1032 690 l 174 690 m 174 -6 l -10 -6 l -10 700 l 164 700 l 164 874 l 1042 874 l 1042 700 l 1215 700 l 1215 -6 l 1032 -6 l 1032 343 l 174 343 l 174 -6 z "},"Å":{"ha":1389,"x_min":-10,"x_max":1215,"o":"m 521 1047 l 685 1047 l 685 1211 l 521 1211 l 521 1047 m 174 690 l 174 526 l 1032 526 l 1032 690 l 174 690 m 174 -6 l -10 -6 l -10 700 l 164 700 l 164 874 l 511 874 l 511 1038 l 338 1038 l 338 1221 l 511 1221 l 511 1394 l 694 1394 l 694 1221 l 868 1221 l 868 1038 l 694 1038 l 694 874 l 1042 874 l 1042 700 l 1215 700 l 1215 -6 l 1032 -6 l 1032 343 l 174 343 l 174 -6 z "},"Æ":{"ha":2257,"x_min":-10,"x_max":2083,"o":"m 174 690 l 174 526 l 1032 526 l 1032 690 l 174 690 m 174 -6 l -10 -6 l -10 700 l 164 700 l 164 874 l 1042 874 l 1042 700 l 1206 700 l 1206 874 l 2083 874 l 2083 690 l 1215 690 l 1215 526 l 1910 526 l 1910 343 l 1215 343 l 1215 179 l 2083 179 l 2083 -6 l 1032 -6 l 1032 343 l 174 343 l 174 -6 z "},"Ç":{"ha":1215,"x_min":-10,"x_max":1042,"o":"m 521 -353 l 338 -353 l 338 -169 l 511 -169 l 511 -6 l 164 -6 l 164 169 l -10 169 l -10 700 l 164 700 l 164 874 l 1042 874 l 1042 690 l 174 690 l 174 179 l 1042 179 l 1042 -6 l 694 -6 l 694 -179 l 521 -179 l 521 -353 z "},"È":{"ha":1215,"x_min":-10,"x_max":1042,"o":"m 521 1038 l 338 1038 l 338 1211 l 164 1211 l 164 1394 l 347 1394 l 347 1221 l 521 1221 l 521 1038 m 164 169 l -10 169 l -10 700 l 164 700 l 164 874 l 1042 874 l 1042 690 l 174 690 l 174 526 l 868 526 l 868 343 l 174 343 l 174 179 l 1042 179 l 1042 -6 l 164 -6 l 164 169 z "},"É":{"ha":1215,"x_min":-10,"x_max":1042,"o":"m 694 1038 l 511 1038 l 511 1221 l 685 1221 l 685 1394 l 868 1394 l 868 1211 l 694 1211 l 694 1038 m 164 169 l -10 169 l -10 700 l 164 700 l 164 874 l 1042 874 l 1042 690 l 174 690 l 174 526 l 868 526 l 868 343 l 174 343 l 174 179 l 1042 179 l 1042 -6 l 164 -6 l 164 169 z "},"Ê":{"ha":1215,"x_min":-10,"x_max":1042,"o":"m 521 1038 l 338 1038 l 338 1221 l 511 1221 l 511 1394 l 694 1394 l 694 1221 l 868 1221 l 868 1038 l 685 1038 l 685 1211 l 521 1211 l 521 1038 m 164 169 l -10 169 l -10 700 l 164 700 l 164 874 l 1042 874 l 1042 690 l 174 690 l 174 526 l 868 526 l 868 343 l 174 343 l 174 179 l 1042 179 l 1042 -6 l 164 -6 l 164 169 z "},"Ë":{"ha":1215,"x_min":-10,"x_max":1042,"o":"m 1042 1038 l 858 1038 l 858 1221 l 1042 1221 l 1042 1038 m 347 1038 l 164 1038 l 164 1221 l 347 1221 l 347 1038 m 164 169 l -10 169 l -10 700 l 164 700 l 164 874 l 1042 874 l 1042 690 l 174 690 l 174 526 l 868 526 l 868 343 l 174 343 l 174 179 l 1042 179 l 1042 -6 l 164 -6 l 164 169 z "},"Ì":{"ha":521,"x_min":-10,"x_max":347,"o":"m 347 1038 l 164 1038 l 164 1211 l -10 1211 l -10 1394 l 174 1394 l 174 1221 l 347 1221 l 347 1038 m 347 -6 l 164 -6 l 164 874 l 347 874 l 347 -6 z "},"Í":{"ha":521,"x_min":-10,"x_max":347,"o":"m 174 1038 l -10 1038 l -10 1221 l 164 1221 l 164 1394 l 347 1394 l 347 1211 l 174 1211 l 174 1038 m 174 -6 l -10 -6 l -10 874 l 174 874 l 174 -6 z "},"Î":{"ha":694,"x_min":-10,"x_max":521,"o":"m 174 1038 l -10 1038 l -10 1221 l 164 1221 l 164 1394 l 347 1394 l 347 1221 l 521 1221 l 521 1038 l 338 1038 l 338 1211 l 174 1211 l 174 1038 m 347 -6 l 164 -6 l 164 874 l 347 874 l 347 -6 z "},"Ï":{"ha":694,"x_min":-10,"x_max":521,"o":"m 521 1038 l 338 1038 l 338 1221 l 521 1221 l 521 1038 m 174 1038 l -10 1038 l -10 1221 l 174 1221 l 174 1038 m 347 -6 l 164 -6 l 164 874 l 347 874 l 347 -6 z "},"Ñ":{"ha":1389,"x_min":-10,"x_max":1215,"o":"m 347 1038 l 164 1038 l 164 1221 l 338 1221 l 338 1394 l 694 1394 l 694 1221 l 858 1221 l 858 1394 l 1042 1394 l 1042 1211 l 868 1211 l 868 1038 l 511 1038 l 511 1211 l 347 1211 l 347 1038 m 174 -6 l -10 -6 l -10 700 l 164 700 l 164 874 l 1042 874 l 1042 700 l 1215 700 l 1215 -6 l 1032 -6 l 1032 690 l 174 690 l 174 -6 z "},"Ò":{"ha":1389,"x_min":-10,"x_max":1215,"o":"m 521 1038 l 338 1038 l 338 1211 l 164 1211 l 164 1394 l 347 1394 l 347 1221 l 521 1221 l 521 1038 m 174 690 l 174 179 l 1032 179 l 1032 690 l 174 690 m 164 169 l -10 169 l -10 700 l 164 700 l 164 874 l 1042 874 l 1042 700 l 1215 700 l 1215 169 l 1042 169 l 1042 -6 l 164 -6 l 164 169 z "},"Ó":{"ha":1389,"x_min":-10,"x_max":1215,"o":"m 868 1038 l 685 1038 l 685 1221 l 858 1221 l 858 1394 l 1042 1394 l 1042 1211 l 868 1211 l 868 1038 m 174 690 l 174 179 l 1032 179 l 1032 690 l 174 690 m 164 169 l -10 169 l -10 700 l 164 700 l 164 874 l 1042 874 l 1042 700 l 1215 700 l 1215 169 l 1042 169 l 1042 -6 l 164 -6 l 164 169 z "},"Ô":{"ha":1389,"x_min":-10,"x_max":1215,"o":"m 521 1038 l 338 1038 l 338 1221 l 511 1221 l 511 1394 l 694 1394 l 694 1221 l 868 1221 l 868 1038 l 685 1038 l 685 1211 l 521 1211 l 521 1038 m 174 690 l 174 179 l 1032 179 l 1032 690 l 174 690 m 164 169 l -10 169 l -10 700 l 164 700 l 164 874 l 1042 874 l 1042 700 l 1215 700 l 1215 169 l 1042 169 l 1042 -6 l 164 -6 l 164 169 z "},"Õ":{"ha":1389,"x_min":-10,"x_max":1215,"o":"m 347 1038 l 164 1038 l 164 1221 l 338 1221 l 338 1394 l 694 1394 l 694 1221 l 858 1221 l 858 1394 l 1042 1394 l 1042 1211 l 868 1211 l 868 1038 l 511 1038 l 511 1211 l 347 1211 l 347 1038 m 174 690 l 174 179 l 1032 179 l 1032 690 l 174 690 m 164 169 l -10 169 l -10 700 l 164 700 l 164 874 l 1042 874 l 1042 700 l 1215 700 l 1215 169 l 1042 169 l 1042 -6 l 164 -6 l 164 169 z "},"Ö":{"ha":1389,"x_min":-10,"x_max":1215,"o":"m 1042 1038 l 858 1038 l 858 1221 l 1042 1221 l 1042 1038 m 347 1038 l 164 1038 l 164 1221 l 347 1221 l 347 1038 m 174 690 l 174 179 l 1032 179 l 1032 690 l 174 690 m 164 169 l -10 169 l -10 700 l 164 700 l 164 874 l 1042 874 l 1042 700 l 1215 700 l 1215 169 l 1042 169 l 1042 -6 l 164 -6 l 164 169 z "},"Ø":{"ha":1389,"x_min":-10,"x_max":1215,"o":"m 521 179 l 1032 179 l 1032 690 l 868 690 l 868 517 l 694 517 l 694 343 l 521 343 l 521 179 m 174 690 l 174 179 l 338 179 l 338 353 l 511 353 l 511 526 l 685 526 l 685 690 l 174 690 m 164 169 l -10 169 l -10 700 l 164 700 l 164 874 l 1042 874 l 1042 700 l 1215 700 l 1215 169 l 1042 169 l 1042 -6 l 164 -6 l 164 169 z "},"Ù":{"ha":1389,"x_min":-10,"x_max":1215,"o":"m 521 1038 l 338 1038 l 338 1211 l 164 1211 l 164 1394 l 347 1394 l 347 1221 l 521 1221 l 521 1038 m 164 169 l -10 169 l -10 874 l 174 874 l 174 179 l 1032 179 l 1032 874 l 1215 874 l 1215 169 l 1042 169 l 1042 -6 l 164 -6 l 164 169 z "},"Ú":{"ha":1389,"x_min":-10,"x_max":1215,"o":"m 868 1038 l 685 1038 l 685 1221 l 858 1221 l 858 1394 l 1042 1394 l 1042 1211 l 868 1211 l 868 1038 m 164 169 l -10 169 l -10 874 l 174 874 l 174 179 l 1032 179 l 1032 874 l 1215 874 l 1215 169 l 1042 169 l 1042 -6 l 164 -6 l 164 169 z "},"Û":{"ha":1389,"x_min":-10,"x_max":1215,"o":"m 521 1038 l 338 1038 l 338 1221 l 511 1221 l 511 1394 l 694 1394 l 694 1221 l 868 1221 l 868 1038 l 685 1038 l 685 1211 l 521 1211 l 521 1038 m 164 169 l -10 169 l -10 874 l 174 874 l 174 179 l 1032 179 l 1032 874 l 1215 874 l 1215 169 l 1042 169 l 1042 -6 l 164 -6 l 164 169 z "},"Ü":{"ha":1389,"x_min":-10,"x_max":1215,"o":"m 1042 1038 l 858 1038 l 858 1221 l 1042 1221 l 1042 1038 m 347 1038 l 164 1038 l 164 1221 l 347 1221 l 347 1038 m 164 169 l -10 169 l -10 874 l 174 874 l 174 179 l 1032 179 l 1032 874 l 1215 874 l 1215 169 l 1042 169 l 1042 -6 l 164 -6 l 164 169 z "},"Ý":{"ha":1389,"x_min":-10,"x_max":1215,"o":"m 868 1038 l 685 1038 l 685 1221 l 858 1221 l 858 1394 l 1042 1394 l 1042 1211 l 868 1211 l 868 1038 m 694 -6 l 511 -6 l 511 343 l 164 343 l 164 517 l -10 517 l -10 874 l 174 874 l 174 526 l 1032 526 l 1032 874 l 1215 874 l 1215 517 l 1042 517 l 1042 343 l 694 343 l 694 -6 z "},"ß":{"ha":1563,"x_min":-10,"x_max":1389,"o":"m 174 -179 l -10 -179 l -10 526 l 164 526 l 164 700 l 338 700 l 338 874 l 1215 874 l 1215 700 l 1389 700 l 1389 517 l 1215 517 l 1215 353 l 1389 353 l 1389 169 l 1215 169 l 1215 -6 l 338 -6 l 338 179 l 1206 179 l 1206 343 l 685 343 l 685 526 l 1206 526 l 1206 690 l 347 690 l 347 517 l 174 517 l 174 -179 z "},"à":{"ha":1389,"x_min":-10,"x_max":1215,"o":"m 521 1038 l 338 1038 l 338 1211 l 164 1211 l 164 1394 l 347 1394 l 347 1221 l 521 1221 l 521 1038 m 174 690 l 174 526 l 1032 526 l 1032 690 l 174 690 m 174 -6 l -10 -6 l -10 700 l 164 700 l 164 874 l 1042 874 l 1042 700 l 1215 700 l 1215 -6 l 1032 -6 l 1032 343 l 174 343 l 174 -6 z "},"á":{"ha":1389,"x_min":-10,"x_max":1215,"o":"m 694 1038 l 511 1038 l 511 1221 l 685 1221 l 685 1394 l 868 1394 l 868 1211 l 694 1211 l 694 1038 m 174 690 l 174 526 l 1032 526 l 1032 690 l 174 690 m 174 -6 l -10 -6 l -10 700 l 164 700 l 164 874 l 1042 874 l 1042 700 l 1215 700 l 1215 -6 l 1032 -6 l 1032 343 l 174 343 l 174 -6 z "},"â":{"ha":1389,"x_min":-10,"x_max":1215,"o":"m 521 1038 l 338 1038 l 338 1221 l 511 1221 l 511 1394 l 694 1394 l 694 1221 l 868 1221 l 868 1038 l 685 1038 l 685 1211 l 521 1211 l 521 1038 m 174 690 l 174 526 l 1032 526 l 1032 690 l 174 690 m 174 -6 l -10 -6 l -10 700 l 164 700 l 164 874 l 1042 874 l 1042 700 l 1215 700 l 1215 -6 l 1032 -6 l 1032 343 l 174 343 l 174 -6 z "},"ã":{"ha":1389,"x_min":-10,"x_max":1215,"o":"m 347 1038 l 164 1038 l 164 1221 l 338 1221 l 338 1394 l 694 1394 l 694 1221 l 858 1221 l 858 1394 l 1042 1394 l 1042 1211 l 868 1211 l 868 1038 l 511 1038 l 511 1211 l 347 1211 l 347 1038 m 174 690 l 174 526 l 1032 526 l 1032 690 l 174 690 m 174 -6 l -10 -6 l -10 700 l 164 700 l 164 874 l 1042 874 l 1042 700 l 1215 700 l 1215 -6 l 1032 -6 l 1032 343 l 174 343 l 174 -6 z "},"ä":{"ha":1389,"x_min":-10,"x_max":1215,"o":"m 1042 1038 l 858 1038 l 858 1221 l 1042 1221 l 1042 1038 m 347 1038 l 164 1038 l 164 1221 l 347 1221 l 347 1038 m 174 690 l 174 526 l 1032 526 l 1032 690 l 174 690 m 174 -6 l -10 -6 l -10 700 l 164 700 l 164 874 l 1042 874 l 1042 700 l 1215 700 l 1215 -6 l 1032 -6 l 1032 343 l 174 343 l 174 -6 z "},"å":{"ha":1389,"x_min":-10,"x_max":1215,"o":"m 521 1047 l 685 1047 l 685 1211 l 521 1211 l 521 1047 m 174 690 l 174 526 l 1032 526 l 1032 690 l 174 690 m 174 -6 l -10 -6 l -10 700 l 164 700 l 164 874 l 511 874 l 511 1038 l 338 1038 l 338 1221 l 511 1221 l 511 1394 l 694 1394 l 694 1221 l 868 1221 l 868 1038 l 694 1038 l 694 874 l 1042 874 l 1042 700 l 1215 700 l 1215 -6 l 1032 -6 l 1032 343 l 174 343 l 174 -6 z "},"æ":{"ha":2257,"x_min":-10,"x_max":2083,"o":"m 174 690 l 174 526 l 1032 526 l 1032 690 l 174 690 m 174 -6 l -10 -6 l -10 700 l 164 700 l 164 874 l 1042 874 l 1042 700 l 1206 700 l 1206 874 l 2083 874 l 2083 690 l 1215 690 l 1215 526 l 1910 526 l 1910 343 l 1215 343 l 1215 179 l 2083 179 l 2083 -6 l 1032 -6 l 1032 343 l 174 343 l 174 -6 z "},"ç":{"ha":1215,"x_min":-10,"x_max":1042,"o":"m 521 -353 l 338 -353 l 338 -169 l 511 -169 l 511 -6 l 164 -6 l 164 169 l -10 169 l -10 700 l 164 700 l 164 874 l 1042 874 l 1042 690 l 174 690 l 174 179 l 1042 179 l 1042 -6 l 694 -6 l 694 -179 l 521 -179 l 521 -353 z "},"è":{"ha":1215,"x_min":-10,"x_max":1042,"o":"m 521 1038 l 338 1038 l 338 1211 l 164 1211 l 164 1394 l 347 1394 l 347 1221 l 521 1221 l 521 1038 m 164 169 l -10 169 l -10 700 l 164 700 l 164 874 l 1042 874 l 1042 690 l 174 690 l 174 526 l 868 526 l 868 343 l 174 343 l 174 179 l 1042 179 l 1042 -6 l 164 -6 l 164 169 z "},"é":{"ha":1215,"x_min":-10,"x_max":1042,"o":"m 694 1038 l 511 1038 l 511 1221 l 685 1221 l 685 1394 l 868 1394 l 868 1211 l 694 1211 l 694 1038 m 164 169 l -10 169 l -10 700 l 164 700 l 164 874 l 1042 874 l 1042 690 l 174 690 l 174 526 l 868 526 l 868 343 l 174 343 l 174 179 l 1042 179 l 1042 -6 l 164 -6 l 164 169 z "},"ê":{"ha":1215,"x_min":-10,"x_max":1042,"o":"m 521 1038 l 338 1038 l 338 1221 l 511 1221 l 511 1394 l 694 1394 l 694 1221 l 868 1221 l 868 1038 l 685 1038 l 685 1211 l 521 1211 l 521 1038 m 164 169 l -10 169 l -10 700 l 164 700 l 164 874 l 1042 874 l 1042 690 l 174 690 l 174 526 l 868 526 l 868 343 l 174 343 l 174 179 l 1042 179 l 1042 -6 l 164 -6 l 164 169 z "},"ë":{"ha":1215,"x_min":-10,"x_max":1042,"o":"m 1042 1038 l 858 1038 l 858 1221 l 1042 1221 l 1042 1038 m 347 1038 l 164 1038 l 164 1221 l 347 1221 l 347 1038 m 164 169 l -10 169 l -10 700 l 164 700 l 164 874 l 1042 874 l 1042 690 l 174 690 l 174 526 l 868 526 l 868 343 l 174 343 l 174 179 l 1042 179 l 1042 -6 l 164 -6 l 164 169 z "},"ì":{"ha":521,"x_min":-10,"x_max":347,"o":"m 347 1038 l 164 1038 l 164 1211 l -10 1211 l -10 1394 l 174 1394 l 174 1221 l 347 1221 l 347 1038 m 347 -6 l 164 -6 l 164 874 l 347 874 l 347 -6 z "},"í":{"ha":521,"x_min":-10,"x_max":347,"o":"m 174 1038 l -10 1038 l -10 1221 l 164 1221 l 164 1394 l 347 1394 l 347 1211 l 174 1211 l 174 1038 m 174 -6 l -10 -6 l -10 874 l 174 874 l 174 -6 z "},"î":{"ha":694,"x_min":-10,"x_max":521,"o":"m 174 1038 l -10 1038 l -10 1221 l 164 1221 l 164 1394 l 347 1394 l 347 1221 l 521 1221 l 521 1038 l 338 1038 l 338 1211 l 174 1211 l 174 1038 m 347 -6 l 164 -6 l 164 874 l 347 874 l 347 -6 z "},"ï":{"ha":694,"x_min":-10,"x_max":521,"o":"m 521 1038 l 338 1038 l 338 1221 l 521 1221 l 521 1038 m 174 1038 l -10 1038 l -10 1221 l 174 1221 l 174 1038 m 347 -6 l 164 -6 l 164 874 l 347 874 l 347 -6 z "},"ñ":{"ha":1389,"x_min":-10,"x_max":1215,"o":"m 347 1038 l 164 1038 l 164 1221 l 338 1221 l 338 1394 l 694 1394 l 694 1221 l 858 1221 l 858 1394 l 1042 1394 l 1042 1211 l 868 1211 l 868 1038 l 511 1038 l 511 1211 l 347 1211 l 347 1038 m 174 -6 l -10 -6 l -10 700 l 164 700 l 164 874 l 1042 874 l 1042 700 l 1215 700 l 1215 -6 l 1032 -6 l 1032 690 l 174 690 l 174 -6 z "},"ò":{"ha":1389,"x_min":-10,"x_max":1215,"o":"m 521 1038 l 338 1038 l 338 1211 l 164 1211 l 164 1394 l 347 1394 l 347 1221 l 521 1221 l 521 1038 m 174 690 l 174 179 l 1032 179 l 1032 690 l 174 690 m 164 169 l -10 169 l -10 700 l 164 700 l 164 874 l 1042 874 l 1042 700 l 1215 700 l 1215 169 l 1042 169 l 1042 -6 l 164 -6 l 164 169 z "},"ó":{"ha":1389,"x_min":-10,"x_max":1215,"o":"m 868 1038 l 685 1038 l 685 1221 l 858 1221 l 858 1394 l 1042 1394 l 1042 1211 l 868 1211 l 868 1038 m 174 690 l 174 179 l 1032 179 l 1032 690 l 174 690 m 164 169 l -10 169 l -10 700 l 164 700 l 164 874 l 1042 874 l 1042 700 l 1215 700 l 1215 169 l 1042 169 l 1042 -6 l 164 -6 l 164 169 z "},"ô":{"ha":1389,"x_min":-10,"x_max":1215,"o":"m 521 1038 l 338 1038 l 338 1221 l 511 1221 l 511 1394 l 694 1394 l 694 1221 l 868 1221 l 868 1038 l 685 1038 l 685 1211 l 521 1211 l 521 1038 m 174 690 l 174 179 l 1032 179 l 1032 690 l 174 690 m 164 169 l -10 169 l -10 700 l 164 700 l 164 874 l 1042 874 l 1042 700 l 1215 700 l 1215 169 l 1042 169 l 1042 -6 l 164 -6 l 164 169 z "},"õ":{"ha":1389,"x_min":-10,"x_max":1215,"o":"m 347 1038 l 164 1038 l 164 1221 l 338 1221 l 338 1394 l 694 1394 l 694 1221 l 858 1221 l 858 1394 l 1042 1394 l 1042 1211 l 868 1211 l 868 1038 l 511 1038 l 511 1211 l 347 1211 l 347 1038 m 174 690 l 174 179 l 1032 179 l 1032 690 l 174 690 m 164 169 l -10 169 l -10 700 l 164 700 l 164 874 l 1042 874 l 1042 700 l 1215 700 l 1215 169 l 1042 169 l 1042 -6 l 164 -6 l 164 169 z "},"ö":{"ha":1389,"x_min":-10,"x_max":1215,"o":"m 1042 1038 l 858 1038 l 858 1221 l 1042 1221 l 1042 1038 m 347 1038 l 164 1038 l 164 1221 l 347 1221 l 347 1038 m 174 690 l 174 179 l 1032 179 l 1032 690 l 174 690 m 164 169 l -10 169 l -10 700 l 164 700 l 164 874 l 1042 874 l 1042 700 l 1215 700 l 1215 169 l 1042 169 l 1042 -6 l 164 -6 l 164 169 z "},"ø":{"ha":1389,"x_min":-10,"x_max":1215,"o":"m 521 179 l 1032 179 l 1032 690 l 868 690 l 868 517 l 694 517 l 694 343 l 521 343 l 521 179 m 174 690 l 174 179 l 338 179 l 338 353 l 511 353 l 511 526 l 685 526 l 685 690 l 174 690 m 164 169 l -10 169 l -10 700 l 164 700 l 164 874 l 1042 874 l 1042 700 l 1215 700 l 1215 169 l 1042 169 l 1042 -6 l 164 -6 l 164 169 z "},"ù":{"ha":1389,"x_min":-10,"x_max":1215,"o":"m 521 1038 l 338 1038 l 338 1211 l 164 1211 l 164 1394 l 347 1394 l 347 1221 l 521 1221 l 521 1038 m 164 169 l -10 169 l -10 874 l 174 874 l 174 179 l 1032 179 l 1032 874 l 1215 874 l 1215 169 l 1042 169 l 1042 -6 l 164 -6 l 164 169 z "},"ú":{"ha":1389,"x_min":-10,"x_max":1215,"o":"m 868 1038 l 685 1038 l 685 1221 l 858 1221 l 858 1394 l 1042 1394 l 1042 1211 l 868 1211 l 868 1038 m 164 169 l -10 169 l -10 874 l 174 874 l 174 179 l 1032 179 l 1032 874 l 1215 874 l 1215 169 l 1042 169 l 1042 -6 l 164 -6 l 164 169 z "},"û":{"ha":1389,"x_min":-10,"x_max":1215,"o":"m 521 1038 l 338 1038 l 338 1221 l 511 1221 l 511 1394 l 694 1394 l 694 1221 l 868 1221 l 868 1038 l 685 1038 l 685 1211 l 521 1211 l 521 1038 m 164 169 l -10 169 l -10 874 l 174 874 l 174 179 l 1032 179 l 1032 874 l 1215 874 l 1215 169 l 1042 169 l 1042 -6 l 164 -6 l 164 169 z "},"ü":{"ha":1389,"x_min":-10,"x_max":1215,"o":"m 1042 1038 l 858 1038 l 858 1221 l 1042 1221 l 1042 1038 m 347 1038 l 164 1038 l 164 1221 l 347 1221 l 347 1038 m 164 169 l -10 169 l -10 874 l 174 874 l 174 179 l 1032 179 l 1032 874 l 1215 874 l 1215 169 l 1042 169 l 1042 -6 l 164 -6 l 164 169 z "},"ý":{"ha":1389,"x_min":-10,"x_max":1215,"o":"m 868 1038 l 685 1038 l 685 1221 l 858 1221 l 858 1394 l 1042 1394 l 1042 1211 l 868 1211 l 868 1038 m 694 -6 l 511 -6 l 511 343 l 164 343 l 164 517 l -10 517 l -10 874 l 174 874 l 174 526 l 1032 526 l 1032 874 l 1215 874 l 1215 517 l 1042 517 l 1042 343 l 694 343 l 694 -6 z "},"Œ":{"ha":2257,"x_min":-10,"x_max":2083,"o":"m 174 690 l 174 179 l 1032 179 l 1032 690 l 174 690 m 164 169 l -10 169 l -10 700 l 164 700 l 164 874 l 1042 874 l 1042 700 l 1206 700 l 1206 874 l 2083 874 l 2083 690 l 1215 690 l 1215 526 l 1910 526 l 1910 343 l 1215 343 l 1215 179 l 2083 179 l 2083 -6 l 1206 -6 l 1206 169 l 1042 169 l 1042 -6 l 164 -6 l 164 169 z "},"œ":{"ha":2257,"x_min":-10,"x_max":2083,"o":"m 174 690 l 174 179 l 1032 179 l 1032 690 l 174 690 m 164 169 l -10 169 l -10 700 l 164 700 l 164 874 l 1042 874 l 1042 700 l 1206 700 l 1206 874 l 2083 874 l 2083 690 l 1215 690 l 1215 526 l 1910 526 l 1910 343 l 1215 343 l 1215 179 l 2083 179 l 2083 -6 l 1206 -6 l 1206 169 l 1042 169 l 1042 -6 l 164 -6 l 164 169 z "},"™":{"ha":2083,"x_min":-10,"x_max":1910,"o":"m 1215 343 l 1032 343 l 1032 874 l 1389 874 l 1389 700 l 1553 700 l 1553 874 l 1910 874 l 1910 343 l 1726 343 l 1726 690 l 1563 690 l 1563 517 l 1379 517 l 1379 690 l 1215 690 l 1215 343 m 521 343 l 338 343 l 338 690 l -10 690 l -10 874 l 868 874 l 868 690 l 521 690 l 521 343 z "}}}
